<svg id="Layer_5" enable-background="new 0 0 64 64" height="512" viewBox="0 0 64 64" width="512" xmlns="http://www.w3.org/2000/svg"><g><path d="m53 29c-2.206 0-4 1.794-4 4s1.794 4 4 4 4-1.794 4-4-1.794-4-4-4zm0 6c-1.103 0-2-.897-2-2s.897-2 2-2 2 .897 2 2-.897 2-2 2z"/><path d="m59.969 27.828c-1.142-1.11-2.496-1.894-3.969-2.352v-1.608l.961.573c.617.366 1.322.559 2.039.559 1.406 0 2.726-.752 3.441-1.96.544-.918.698-1.994.434-3.03s-.917-1.907-1.832-2.449l-26.671-15.907c-1.434-.855-3.31-.855-4.743 0l-26.668 15.905c-.918.544-1.57 1.415-1.835 2.451-.266 1.036-.111 2.112.433 3.029.717 1.21 2.036 1.961 3.442 1.961.717 0 1.422-.193 2.041-.561l.958-.57v39.131h44 2c1.654 0 3-1.346 3-3v-3h-2v-2h2v-6h-2v-2h2v-2.844c3.617-1.579 6-5.173 6-9.156 0-2.725-1.076-5.272-3.031-7.172zm-53.948-5.108c-.918.546-2.2.213-2.741-.701-.272-.457-.349-.995-.216-1.514s.458-.954.92-1.228l26.67-15.906c.813-.485 1.88-.487 2.692 0l26.674 15.908c.459.271.784.707.917 1.226.132.519.056 1.056-.217 1.515-.541.911-1.825 1.242-2.738.701l-23.611-14.069c-.717-.426-1.536-.652-2.37-.652s-1.654.226-2.371.652zm3.979-.043 20.653-12.306c.814-.486 1.88-.486 2.694 0l20.653 12.305v2.391c-.426-.044-.855-.071-1.292-.063-3.016.086-5.743 1.595-7.535 3.858-2.6-4.825-7.59-7.862-13.173-7.862-8.271 0-15 6.729-15 15 0 3.299 1.07 6.418 3.019 9h-6.019v2h35v13c0 .352.072.686.184 1h-39.184zm39 22.323h-5.012c.714-.955 1.317-1.991 1.788-3.093.899.938 1.985 1.711 3.224 2.25zm-6-9c0-6.065-4.935-11-11-11s-11 4.935-11 11c0 3.72 1.861 7.008 4.695 9h-3.058c-2.341-2.433-3.637-5.609-3.637-9 0-7.168 5.832-13 13-13 5.233 0 9.867 3.079 11.926 7.871-.549 1.175-.879 2.463-.921 3.811h.001c-.06 1.915.427 3.74 1.334 5.311-.608 1.881-1.629 3.594-2.986 5.007h-3.049c2.834-1.992 4.695-5.28 4.695-9zm-11 9c-4.963 0-9-4.037-9-9s4.037-9 9-9 9 4.037 9 9-4.037 9-9 9zm23.666-2.466-.666.236v2.23h-2v6h2v2h-2v6h2v1c0 .552-.448 1-1 1h-2c-.552 0-1-.448-1-1v-17.23l-.666-.235c-3.297-1.167-5.438-4.298-5.33-7.79h.001c.129-4.149 3.609-7.622 7.76-7.74.079-.004.158-.005.237-.005 2.095 0 4.066.799 5.573 2.263 1.564 1.519 2.425 3.557 2.425 5.737 0 3.377-2.144 6.404-5.334 7.534z"/><path d="m41 57h2v2h-2z"/><path d="m37 57h2v2h-2z"/><path d="m45 57h2v2h-2z"/><path d="m33 33c.552 0 1 .448 1 1h2c0-1.654-1.346-3-3-3v-2h-2v2h-3v3c0 1.654 1.346 3 3 3h2c.552 0 1 .448 1 1v1h-3c-.552 0-1-.448-1-1h-2c0 1.654 1.346 3 3 3v2h2v-2h3v-3c0-1.654-1.346-3-3-3h-2c-.552 0-1-.448-1-1v-1z"/></g></svg>